<?xml version="1.0" encoding="UTF-8"?>
<svg width="512px" height="184px" viewBox="0 0 512 184" version="1.1" xmlns="http://www.w3.org/2000/svg" xmlns:xlink="http://www.w3.org/1999/xlink" preserveAspectRatio="xMidYMid">
    <g>
        <path d="M101.373882,112.736938 C117.798194,84.1791243 128.437379,49.6495324 128.437379,19.0385425 C128.437379,5.97287608 124.332125,0 116.492725,0 C98.2007921,0 87.0016494,41.8090346 87.7482589,76.1530721 C87.9349113,85.2990386 99.6940111,84.7390814 99.6940111,75.7797673 C99.6940111,57.6744867 102.867101,33.0374708 110.333197,19.4107493 C113.319635,13.8122759 116.306073,14.9321902 116.306073,18.6652378 C116.306073,49.6495324 102.867101,86.97891 84.5751685,115.350071 C89.6147827,115.163419 94.8410493,114.416809 101.373882,112.736938 Z M133.663865,134.574937 C128.250946,134.574937 125.452259,131.215194 125.452259,125.615623 C125.452259,114.043175 134.970432,100.044247 146.542879,95.3779376 C149.342665,90.7116281 153.262365,86.9785806 157.928675,85.6720139 C158.675284,85.4864595 159.421894,85.2998071 160.355155,85.2998071 C158.301979,83.9932405 155.502194,83.245533 152.329103,83.245533 C131.610689,83.245533 112.758799,106.763733 112.758799,125.988927 C112.758799,137.561375 118.918328,145.960732 132.543951,145.960732 C144.489703,145.960732 154.382279,139.241246 160.72846,130.468585 C155.875498,130.09528 152.142451,128.602061 149.342665,126.17558 C145.04966,131.401846 139.076784,134.574937 133.663865,134.574937 Z M101.93362,115.536614 C77.6688109,121.50949 64.0431874,116.096571 42.7659143,116.283223 C24.4739813,116.469876 0.955781734,124.869233 0.0225198467,146.334256 C-0.537437286,159.773227 9.35513872,170.597967 28.5803336,170.597967 C49.8576067,170.597967 70.3904662,155.479125 87.7480393,132.895285 C84.0149918,133.26859 78.7887252,133.641895 70.9493254,133.455242 C57.8836589,148.760737 43.3258714,157.533399 29.7002479,157.533399 C17.9411481,157.533399 12.9015339,152.867089 13.2748387,145.774299 C13.8347958,134.388504 29.1402907,128.788933 43.6980782,128.788933 C63.1110234,128.788933 76.9222014,134.015199 104.546753,126.735757 C106.039972,126.362452 108.093148,125.802495 109.959672,125.055885 C109.959672,120.576228 111.079587,115.909919 112.94611,111.430262 C108.839758,113.483438 104.733406,114.790004 101.93362,115.536614 Z M238.188318,93.6986152 C239.12158,91.8320914 241.548061,92.9520056 240.614799,94.8185294 C237.628361,101.91132 234.828576,110.310677 232.402095,120.389905 C243.04128,108.630805 252.560552,82.6861249 238.374971,82.6861249 C228.669047,82.6861249 220.457441,105.271063 217.283252,115.723596 C207.765079,130.281383 200.672289,133.641126 197.4981,133.641126 C196.191534,133.641126 195.258272,132.707864 195.258272,131.029091 C194.886065,124.495159 203.658727,110.870634 212.431388,92.7653533 C214.296814,89.0323057 213.177998,83.8060391 208.137286,82.8727773 C205.338598,82.3128201 201.978855,83.0594296 199.552374,87.9123914 C194.139455,97.9905219 181.074887,112.176103 167.075959,115.535845 C167.075959,115.535845 167.074861,115.536943 167.073763,115.536943 C165.768294,115.90915 164.64838,115.90915 163.715118,115.90915 C155.315761,115.90915 156.435675,103.591191 160.355375,99.2981865 C162.221899,97.2450103 163.90177,99.4848389 162.595204,100.978058 C159.795418,104.151148 158.675504,113.297115 164.275075,113.297115 C166.328251,113.297115 167.82147,112.737158 168.754732,112.177201 C173.607694,96.4984008 168.754732,88.0990438 161.288637,88.0990438 C142.763937,88.0990438 135.645894,133.68175 168.927111,126.8898 C169.175249,126.851371 169.428876,126.799767 169.687994,126.734988 C174.727608,125.428421 178.647308,123.562996 181.820398,121.509819 C184.246879,115.536943 187.979927,109.377415 189.473146,106.950934 C190.779713,104.897758 193.019541,106.204324 191.899627,108.070848 C189.099841,113.669322 182.567008,123.00194 182.567008,133.268919 C182.567008,142.040483 188.913189,145.213573 194.886065,145.213573 C199.924581,145.213573 204.404238,143.533702 208.511688,139.614002 C210.004907,136.254259 210.563767,134.014431 211.870333,130.655786 C212.616943,128.788164 215.230076,129.535872 214.671217,131.401297 C206.645165,157.345978 193.019541,169.105078 182.567008,172.651473 C180.327179,173.398082 179.393918,170.411644 182.007051,169.478382 C191.712974,165.931987 201.044495,156.226064 206.830719,144.280312 C194.51276,155.479454 170.807908,157.719283 170.807908,171.904863 C170.807908,178.624349 175.287565,182.544049 182.380356,182.544049 C190.966365,182.544049 207.391774,177.13113 222.883921,140.733916 C229.415657,125.241769 230.908876,108.257501 238.188318,93.6986152 Z M293.444779,132.325995 C295.496857,130.273917 298.103402,127.480719 298.662261,126.548555 C299.595523,122.628855 300.90209,118.710253 302.208657,115.90937 C303.328571,113.669541 305.755052,114.789455 305.008442,116.842632 C303.141919,121.882246 301.088742,126.548555 301.088742,131.401517 C301.088742,140.734136 305.755052,145.213793 313.034495,145.213793 C320.313937,145.213793 326.286813,140.920788 334.871725,132.334779 C334.876117,132.330387 334.87941,132.324897 334.883802,132.320506 L336.922705,130.281603 C336.922705,123.563215 338.415924,117.776991 341.029057,112.362975 C335.802791,116.470425 332.256396,119.642417 327.216781,124.683129 C327.21239,124.686423 327.209096,124.691913 327.205802,124.696305 C321.986123,129.914886 318.071913,133.641346 315.83428,133.641346 C314.901018,133.641346 313.967756,132.894736 313.967756,131.401517 C313.967756,125.615293 318.446316,111.056408 325.539106,95.7509129 C328.526642,89.0325253 327.59338,83.8062587 322.553766,82.8729968 C319.752882,82.3130397 316.394237,83.0596492 313.967756,87.912611 C308.554837,99.1117537 296.609085,113.669541 285.783247,124.683129 C285.782149,124.684227 285.781051,124.686423 285.778856,124.687521 C280.741437,129.72494 276.265074,133.641346 274.39855,133.641346 C272.532027,133.641346 271.785417,133.268041 271.785417,131.401517 C271.785417,124.495379 289.704045,118.149198 288.210826,104.33802 C286.717607,89.5924824 265.439236,95.3787061 262.080591,86.9793492 C261.332884,84.926173 264.13267,83.8062587 264.879279,85.8594349 C265.439236,87.1660015 266.746901,88.2859158 271.785417,89.2191777 C271.972069,88.2859158 271.972069,87.7259587 271.972069,86.7926968 C271.972069,79.3266017 268.612327,75.5935541 261.706189,75.5935541 C256.853227,75.5935541 251.813613,79.6999064 251.813613,85.6727825 C251.813613,103.218106 274.771855,100.978277 275.891769,105.270184 C277.198336,111.056408 258.534196,118.710253 258.534196,132.521431 C258.534196,141.480745 264.319322,145.213793 271.599863,145.213793 C278.878207,145.213793 284.851083,140.920788 293.437093,132.334779 C293.440387,132.332583 293.442583,132.328191 293.444779,132.325995 Z M256.667014,100.231119 C252.187357,108.257171 244.347957,117.776442 237.441819,124.68258 C235.575295,126.549104 232.588857,129.722195 229.602419,132.335328 C226.429328,139.054814 224.002848,145.587647 220.829757,151.746077 C228.855809,146.334256 239.681647,137.748247 245.094566,132.335328 C252.933966,124.495928 261.333323,114.043395 266.372937,104.337471 C263.386499,103.590862 258.906842,102.097643 256.667014,100.231119 Z M329.832769,69.8073304 C336.92556,69.8073304 343.085088,64.3944115 343.645045,57.6749259 C344.205002,50.9554403 338.792083,45.5425213 331.699293,45.5425213 C324.41985,45.5425213 318.260322,50.9554403 317.700365,57.6749259 C317.140408,64.3944115 322.553327,69.8073304 329.832769,69.8073304 Z M353.161572,145.214013 C363.98741,145.214013 372.386767,138.307875 379.666209,130.09517 C379.479557,123.189032 379.852862,117.776113 380.972776,111.989889 C373.506681,122.069118 364.734019,133.26826 355.774705,133.26826 C349.241872,133.26826 351.295048,124.122294 352.414962,120.389246 C356.894619,105.457056 366.787195,96.6843944 373.693333,92.9513469 C375.746509,91.8314326 377.426381,94.6312183 374.813247,95.9388829 C368.093762,99.2975277 360.441014,107.136928 356.521314,116.842851 C369.773633,105.643709 384.332519,101.537356 385.825738,90.7115183 C386.572347,85.4863497 383.399257,83.0598688 379.292904,83.0598688 C361.747581,83.0598688 339.7226,108.443494 339.7226,128.788603 C339.7226,139.987746 346.442086,145.214013 353.161572,145.214013 Z M470.003215,124.68258 C470.003215,124.68258 470.002117,124.683678 470.002117,124.684776 C462.162717,132.52198 453.951111,135.321766 445.926156,135.321766 C423.901176,135.321766 444.432937,97.6179857 460.485042,94.8182 C462.911523,94.4448953 464.031437,95.7514619 463.283729,97.8046381 C461.791608,101.724338 454.698818,109.937043 444.806242,111.056957 C442.753066,114.230047 440.886542,117.776442 439.95328,121.322838 C459.365127,120.762881 473.922915,107.697214 475.042829,94.8182 C475.790537,87.1654526 471.870837,83.0591002 464.778046,83.0591002 C457.871908,83.0591002 450.218063,87.1654526 443.499675,92.9516763 C433.793752,101.351033 421.474695,115.909919 412.702033,124.68258 C412.700935,124.683678 412.699837,124.685874 412.697641,124.68807 C406.914711,130.469902 402.436152,133.26859 399.450812,133.26859 C396.837679,133.26859 394.037893,132.335328 394.037893,124.309276 C394.037893,101.91099 413.636393,64.0205577 424.275578,48.5295084 C425.7677,46.2896798 428.007528,47.9684533 426.702059,50.0216294 C415.129612,68.8735196 404.677079,88.845324 398.704203,110.870304 C414.94296,89.0319763 434.354807,57.6743769 434.914764,44.4220581 C435.286971,37.3292678 433.234893,33.5973182 427.448669,33.5973182 C411.02326,33.5973182 380.972227,97.6179857 382.465446,127.669018 C383.025403,138.867063 388.065017,145.214342 397.770941,145.214342 C402.250598,145.214342 409.530041,143.161166 420.355879,132.335328 C420.356977,132.333132 420.358074,132.330936 420.36027,132.32874 L422.221304,130.468804 C422.221304,127.109061 422.594609,123.002709 423.341219,120.389576 C424.087828,118.149747 426.700961,118.709704 426.141004,121.136185 C425.581047,123.376014 425.207742,125.615842 425.207742,128.788933 C425.207742,139.986977 432.487185,146.147604 445.926156,146.147604 C456.565342,146.147604 467.950039,142.041252 477.655963,132.335328 C477.65706,132.33423 477.65706,132.333132 477.658158,132.332034 C491.655989,118.3364 501.174162,122.816057 501.174162,130.655457 C501.174162,147.45417 482.695577,167.238225 447.044973,167.238225 C385.450786,167.238225 325.163166,146.147604 277.940114,173.211101 C270.474019,177.504105 275.140329,187.210029 283.539686,182.730372 C327.028592,159.21327 385.450786,177.87741 447.044973,177.87741 C490.161672,177.87741 512,154.733613 512,130.095499 C512,111.990219 491.468238,103.217557 470.003215,124.68258 Z" fill="#FF0044"></path>
    </g>
</svg>
